<svg version="1.1" id="Layer_1" xmlns="http://www.w3.org/2000/svg" xmlns:xlink="http://www.w3.org/1999/xlink" x="0px" y="0px"
	 width="100%" viewBox="0 0 806 153" enable-background="new 0 0 806 153" xml:space="preserve">
<path fill="#FEFEFF" opacity="1.000000" stroke="none" 
	d="
M592.000000,154.000000 
	C394.717957,154.000000 197.935944,154.000000 1.076957,154.000000 
	C1.076957,103.064697 1.076957,52.129246 1.076957,1.096897 
	C269.666656,1.096897 538.333313,1.096897 806.971924,1.096897 
	C806.971924,52.063999 806.971924,103.032013 806.971924,154.000000 
	C735.462585,154.000000 663.981323,154.000000 592.000000,154.000000 
M95.470734,104.008278 
	C98.875725,104.008278 102.280708,104.008278 105.587845,104.008278 
	C106.031624,99.169495 106.948036,95.038651 101.448639,93.463356 
	C100.751831,93.263756 100.232933,91.248466 100.215622,90.065842 
	C100.105881,82.569359 100.073593,75.069069 100.194687,67.572922 
	C100.263428,63.317650 105.940186,59.599445 111.721840,59.640018 
	C116.825386,59.675838 117.696030,63.239918 117.784431,67.082138 
	C117.960686,74.742828 117.895065,82.411224 117.779930,90.074188 
	C117.762444,91.238213 117.222923,93.139839 116.450546,93.427711 
	C110.874992,95.505875 112.250389,99.644753 112.796776,103.658005 
	C121.650940,103.658005 130.226074,103.658005 138.857590,103.658005 
	C138.914902,99.509071 140.461441,95.237320 134.959396,93.476204 
	C134.228271,93.242180 133.711258,91.244972 133.693298,90.055283 
	C133.580200,82.558891 133.563278,75.058975 133.664597,67.562248 
	C133.722061,63.310638 139.326233,59.580139 145.123138,59.649155 
	C150.186386,59.709442 151.060104,63.146236 151.102539,67.101425 
	C151.184753,74.765274 151.185471,82.431343 151.077393,90.094482 
	C151.060715,91.276619 150.557281,93.248093 149.819733,93.497719 
	C143.986221,95.472115 146.061920,99.786613 146.110199,103.679169 
	C155.600037,103.679169 164.671768,103.679169 173.687424,103.679169 
	C174.387955,98.958321 174.997559,94.716248 168.833038,93.530449 
	C168.000885,93.370369 167.119141,90.947632 167.087814,89.554024 
	C166.885727,80.561249 167.254990,71.545364 166.783554,62.571388 
	C166.128632,50.105118 157.410843,43.756992 145.540695,47.280506 
	C140.749023,48.702854 136.453476,51.796604 131.839233,54.177677 
	C122.807701,44.017105 120.471939,43.955879 100.385162,53.160172 
	C98.685516,51.090668 97.309799,47.811588 95.611397,47.634930 
	C89.410423,46.989948 83.101807,47.379890 77.039291,47.379890 
	C75.765602,55.740658 75.815529,55.626965 81.615204,58.173912 
	C82.801369,58.694820 84.212242,60.404564 84.239250,61.595348 
	C84.454552,71.088066 84.452080,80.589684 84.253090,90.083054 
	C84.226784,91.337929 82.878418,93.470665 81.866745,93.651031 
	C75.709923,94.748672 75.362160,98.604210 76.647865,104.008286 
	C82.567757,104.008286 88.522987,104.008286 95.470734,104.008278 
M292.367523,47.049622 
	C287.738953,47.037674 283.024963,46.452271 278.498535,47.126328 
	C267.062775,48.829308 259.093018,58.026295 260.628723,68.562309 
	C261.464661,74.297729 264.575867,79.701523 267.094604,86.410103 
	C261.579987,96.628128 261.566956,96.993446 267.485199,103.351196 
	C266.838470,103.838684 266.244873,104.361900 265.582031,104.773659 
	C260.679291,107.819275 257.705780,111.869003 258.610657,117.976295 
	C259.548462,124.306038 263.862091,127.433846 269.507385,128.923019 
	C280.184906,131.739670 290.939575,131.902817 301.469788,128.329483 
	C310.930359,125.119125 315.978638,117.168991 314.601562,108.481766 
	C313.284851,100.175446 307.153076,95.422073 296.910553,94.860725 
	C290.852570,94.528709 284.788910,94.299667 278.519867,94.014877 
	C278.708893,91.681732 278.850250,89.936707 278.990265,88.208481 
	C300.154755,89.401535 312.568726,80.731903 308.173523,58.407665 
	C310.700073,57.860199 313.235870,57.310719 315.653625,56.786819 
	C315.653625,53.863098 315.653625,51.297966 315.653625,49.379112 
	C307.894531,48.617405 300.553223,47.896717 292.367523,47.049622 
M454.359924,100.890999 
	C458.599823,99.829689 460.107727,97.199326 459.717712,92.826035 
	C459.334808,88.532204 459.497925,84.170166 459.723358,79.853828 
	C459.788422,78.608063 460.716461,76.508865 461.553955,76.343185 
	C468.652466,74.938904 466.547150,70.028160 466.273499,65.960083 
	C456.209503,65.960083 446.498779,65.960083 436.887207,65.960083 
	C435.836182,73.709183 435.890106,73.592094 441.563324,76.204559 
	C442.715118,76.734947 443.810059,78.432976 444.019867,79.739120 
	C444.410919,82.173294 444.292419,84.730003 444.060455,87.205208 
	C443.955292,88.327400 443.362793,89.889503 442.497192,90.380119 
	C433.335938,95.572540 419.607697,90.777672 417.159332,80.633942 
	C415.452393,73.562027 415.224060,65.801567 416.014038,58.531090 
	C417.440338,45.404537 425.307953,40.406746 438.406036,42.317593 
	C442.869690,42.968784 445.442047,44.691422 445.906677,49.194481 
	C446.202606,52.062714 447.692902,53.214455 450.589325,52.903091 
	C452.504517,52.697212 454.459778,52.864098 457.064362,52.864098 
	C457.064362,46.777851 457.230164,41.313534 456.928070,35.875198 
	C456.865692,34.751953 455.241943,33.128490 454.027283,32.760571 
	C449.430786,31.368223 444.758179,30.066662 440.021027,29.326847 
	C420.414001,26.264746 404.963837,35.280270 399.659698,52.798328 
	C396.546936,63.078838 396.545563,73.469002 399.609833,83.755981 
	C403.447449,96.639214 413.259216,104.232567 426.698700,105.049789 
	C435.944885,105.612038 444.965027,104.657043 454.359924,100.890999 
M555.944092,60.146618 
	C555.944092,70.959183 555.944092,81.771744 555.944092,92.772087 
	C553.340210,93.720558 550.043091,93.953903 548.622253,95.707489 
	C547.161987,97.509636 547.533508,100.796036 547.054749,103.731522 
	C557.671875,103.731522 567.397705,103.731522 577.078674,103.731522 
	C578.109619,97.188698 578.012085,97.310989 573.562317,93.763077 
	C572.528015,92.938423 571.971252,90.980431 571.937134,89.526489 
	C571.773071,82.536957 571.812500,75.540939 571.881531,68.548233 
	C571.927856,63.853928 577.011353,59.838116 582.676208,59.875042 
	C587.097229,59.903866 589.858276,62.880352 589.955261,68.179222 
	C590.089294,75.503189 590.072937,82.833229 589.911865,90.156067 
	C589.884644,91.395500 589.061890,93.427628 588.171509,93.707108 
	C582.149170,95.597519 584.310364,99.873222 584.565430,103.704239 
	C594.176941,103.704239 603.428833,103.704239 612.642883,103.704239 
	C613.352539,96.738968 613.261597,96.891083 607.911987,93.693558 
	C606.759033,93.004448 605.994202,90.798141 605.950378,89.264999 
	C605.703308,80.614502 606.201111,71.921028 605.557983,63.308453 
	C604.503296,49.185070 594.497864,43.209000 581.329102,48.462639 
	C577.729675,49.898609 574.369751,51.934814 570.615723,53.839767 
	C570.212830,51.539513 569.881165,49.645969 569.605652,48.073082 
	C562.058655,48.073082 554.859436,48.073082 547.895020,48.073082 
	C546.371887,53.906574 547.292236,57.634506 553.477478,58.222439 
	C554.245422,58.295433 554.959290,58.936764 555.944092,60.146618 
M704.873962,102.543259 
	C707.502258,100.970856 710.130554,99.398460 713.085693,97.630547 
	C713.629395,99.966743 714.064209,101.834778 714.483459,103.636261 
	C719.543518,103.636261 724.342163,103.709442 729.137817,103.619797 
	C737.135559,103.470299 737.134766,103.426414 736.264893,95.302505 
	C733.597046,94.439438 730.832031,93.544960 727.884033,92.591255 
	C727.884033,77.499367 727.884033,62.730206 727.884033,47.941185 
	C719.841736,47.941185 712.130920,47.941185 704.387146,47.941185 
	C703.517883,53.111393 702.981689,57.361851 709.539856,58.280792 
	C710.567627,58.424809 711.953186,60.804077 712.017639,62.203053 
	C712.293396,68.182381 712.136475,74.181686 712.136292,80.173706 
	C712.136108,87.505058 709.547302,90.578026 702.342529,91.801491 
	C697.643738,92.599411 694.811829,90.756683 694.275146,86.049622 
	C693.881165,82.593834 694.027405,79.071106 694.017029,75.577957 
	C693.989563,66.321938 694.007690,57.065784 694.007690,48.017723 
	C685.651001,48.017723 677.940857,48.017723 670.373230,48.017723 
	C669.349915,53.450821 669.393555,57.529610 675.802063,58.361248 
	C676.811646,58.492256 678.180603,60.926449 678.248901,62.350174 
	C678.527893,68.162399 678.275452,73.997658 678.397217,79.820702 
	C678.487366,84.132072 678.361694,88.535110 679.192383,92.726868 
	C681.360291,103.666672 691.664917,107.716209 704.873962,102.543259 
M244.139481,101.231293 
	C244.486465,97.387466 244.514969,93.965553 239.176300,93.462349 
	C238.200195,93.370338 236.816559,90.628860 236.745239,89.059326 
	C236.330475,79.930557 236.538361,70.768829 235.975815,61.652790 
	C235.446045,53.067883 230.802048,48.455193 222.324265,46.986423 
	C212.725357,45.323418 203.465500,47.133686 194.334961,49.877033 
	C193.353317,50.171978 192.028229,51.467480 191.979141,52.360256 
	C191.736145,56.779518 191.868454,61.219414 191.868454,65.784332 
	C195.877563,65.784332 198.816483,65.784332 201.675827,65.784332 
	C204.074066,58.913551 208.948853,56.359406 215.656754,58.275234 
	C220.180435,59.567230 221.672623,63.656303 220.054276,71.357376 
	C216.739014,71.357376 213.255753,71.107330 209.825302,71.425888 
	C206.207092,71.761894 202.510742,72.244705 199.074936,73.360527 
	C190.662033,76.092667 186.682068,83.450554 188.424118,92.243706 
	C190.122757,100.817596 195.798737,105.584435 204.769196,104.838875 
	C208.729736,104.509697 212.594101,102.507965 216.394348,100.994858 
	C218.150299,100.295708 219.647842,98.947586 221.381378,97.816154 
	C222.179977,100.138748 222.812012,101.976906 223.387009,103.649139 
	C228.184265,103.649139 232.667450,103.815575 237.129532,103.580803 
	C239.453705,103.458519 241.740662,102.628845 244.139481,101.231293 
M351.973541,90.973450 
	C347.701538,88.312996 345.772278,84.531242 345.861176,79.064072 
	C357.587006,79.064072 368.703674,79.064072 379.696381,79.064072 
	C382.995209,66.694366 378.958832,54.534447 370.143097,49.517815 
	C355.703125,41.300674 336.030304,48.272854 331.273193,64.151054 
	C329.345215,70.586349 329.184387,77.999397 330.060944,84.727623 
	C331.597382,96.521027 339.367371,103.388435 350.976562,104.812134 
	C361.753052,106.133720 371.308746,102.968803 380.133301,96.264061 
	C378.594818,93.361267 377.142731,90.621498 375.658600,87.821259 
	C368.032074,90.787521 360.816223,94.110252 351.973541,90.973450 
M481.152130,79.244980 
	C482.139404,89.762901 485.404816,98.996208 496.327332,102.973747 
	C509.357697,107.718872 521.100220,104.405853 532.291077,96.365662 
	C530.755310,93.409393 529.332397,90.670410 527.879944,87.874596 
	C524.803406,89.002792 522.224670,90.183769 519.520813,90.875832 
	C516.639648,91.613281 513.649597,92.214981 510.690247,92.301979 
	C502.829712,92.533035 497.912811,87.356804 498.315460,79.100998 
	C509.539429,79.100998 520.800720,79.100998 533.147034,79.100998 
	C532.735046,73.301529 532.839478,67.984856 531.881714,62.866974 
	C530.413208,55.019993 525.381287,49.823021 517.724121,47.582401 
	C510.825104,45.563614 503.835632,45.732018 497.215027,48.723377 
	C484.438141,54.496296 481.214661,65.598373 481.152130,79.244980 
M755.494873,76.078918 
	C758.928162,77.719086 762.334473,79.419197 765.802917,80.981346 
	C768.819946,82.340172 772.084351,83.251709 774.881104,84.950775 
	C776.087646,85.683777 777.044006,87.965805 776.904053,89.428383 
	C776.786377,90.658592 774.997864,92.587143 773.805847,92.700500 
	C769.711792,93.089859 765.440552,93.349777 761.485413,92.500839 
	C760.151306,92.214485 759.558044,88.476204 758.600647,86.256271 
	C755.858459,86.256271 752.981567,86.256271 750.070984,86.256271 
	C750.070984,91.945152 750.070984,97.222687 750.070984,102.749886 
	C759.522339,104.938080 768.840576,106.162743 778.275574,103.962173 
	C786.967346,101.934967 792.587219,95.653671 792.998718,87.901718 
	C793.432861,79.722626 790.017761,75.250290 780.468811,71.649567 
	C776.587463,70.185989 772.501038,69.166832 768.816528,67.327339 
	C767.224548,66.532555 765.205078,63.848640 765.538818,62.599720 
	C766.013916,60.821804 768.255371,58.765644 770.132507,58.250465 
	C776.241333,56.573917 778.900452,58.337517 781.497864,64.834396 
	C784.207214,64.834396 786.940674,64.834396 789.853088,64.834396 
	C790.115601,60.412708 790.526855,56.294601 790.492249,52.180256 
	C790.483154,51.092396 789.297852,49.323513 788.316833,49.043446 
	C780.104065,46.698738 771.726501,45.264858 763.232849,47.268154 
	C756.872498,48.768261 751.942993,52.297298 750.169250,58.946304 
	C748.458679,65.358643 749.504700,71.159302 755.494873,76.078918 
M61.152924,37.109962 
	C61.152924,34.980190 61.152924,32.850418 61.152924,30.746487 
	C50.291939,30.746487 39.920094,30.746487 29.540222,30.746487 
	C28.633680,36.182568 28.220440,40.631393 34.775532,41.972069 
	C35.769440,42.175346 37.020222,44.348778 37.034283,45.623253 
	C37.194183,60.121010 37.195187,74.621819 37.035450,89.119560 
	C37.021393,90.395195 35.878345,92.207588 34.743553,92.830681 
	C28.375883,96.326981 28.128925,96.650993 29.888113,103.749870 
	C40.145699,103.749870 50.414631,103.749870 60.816082,103.749870 
	C61.439533,98.848991 62.450268,94.283028 55.779823,92.744614 
	C54.588413,92.469849 53.297401,89.527855 53.270012,87.798134 
	C53.061584,74.635208 53.322960,61.464108 53.057060,48.303249 
	C52.973988,44.191441 53.977364,41.745232 58.152821,40.715469 
	C59.301983,40.432060 60.149292,38.924702 61.152924,37.109962 
M650.864014,87.296494 
	C650.864014,74.181129 650.864014,61.065765 650.864014,48.034027 
	C642.454346,48.034027 634.593994,48.034027 626.939270,48.034027 
	C625.274109,53.851971 626.410156,57.313385 632.374695,58.288860 
	C633.403809,58.457169 634.852173,60.491112 634.875122,61.686958 
	C635.073425,72.003815 634.989258,82.326103 634.989258,92.509972 
	C625.662109,96.965637 625.662109,96.965637 627.006958,103.699631 
	C637.221191,103.699631 647.455811,103.699631 657.694885,103.699631 
	C658.349060,99.035034 659.158447,94.804176 652.862671,93.572975 
	C651.885986,93.381981 651.515015,90.093536 650.864014,87.296494 
M643.815552,39.444298 
	C649.387451,37.173573 651.754211,33.356842 650.787292,27.877710 
	C650.082336,23.882885 647.938049,21.247908 643.583191,20.866695 
	C637.649353,20.347265 633.480164,23.754004 633.087708,29.546736 
	C632.658936,35.875332 636.042664,39.295128 643.815552,39.444298 
z"/>
<path fill="#6550F5" opacity="1.000000" stroke="none" 
	d="
M94.974472,104.008286 
	C88.522987,104.008286 82.567757,104.008286 76.647865,104.008286 
	C75.362160,98.604210 75.709923,94.748672 81.866745,93.651031 
	C82.878418,93.470665 84.226784,91.337929 84.253090,90.083054 
	C84.452080,80.589684 84.454552,71.088066 84.239250,61.595348 
	C84.212242,60.404564 82.801369,58.694820 81.615204,58.173912 
	C75.815529,55.626965 75.765602,55.740658 77.039291,47.379890 
	C83.101807,47.379890 89.410423,46.989948 95.611397,47.634930 
	C97.309799,47.811588 98.685516,51.090668 100.385162,53.160172 
	C120.471939,43.955879 122.807701,44.017105 131.839233,54.177677 
	C136.453476,51.796604 140.749023,48.702854 145.540695,47.280506 
	C157.410843,43.756992 166.128632,50.105118 166.783554,62.571388 
	C167.254990,71.545364 166.885727,80.561249 167.087814,89.554024 
	C167.119141,90.947632 168.000885,93.370369 168.833038,93.530449 
	C174.997559,94.716248 174.387955,98.958321 173.687424,103.679169 
	C164.671768,103.679169 155.600037,103.679169 146.110199,103.679169 
	C146.061920,99.786613 143.986221,95.472115 149.819733,93.497719 
	C150.557281,93.248093 151.060715,91.276619 151.077393,90.094482 
	C151.185471,82.431343 151.184753,74.765274 151.102539,67.101425 
	C151.060104,63.146236 150.186386,59.709442 145.123138,59.649155 
	C139.326233,59.580139 133.722061,63.310638 133.664597,67.562248 
	C133.563278,75.058975 133.580200,82.558891 133.693298,90.055283 
	C133.711258,91.244972 134.228271,93.242180 134.959396,93.476204 
	C140.461441,95.237320 138.914902,99.509071 138.857590,103.658005 
	C130.226074,103.658005 121.650940,103.658005 112.796776,103.658005 
	C112.250389,99.644753 110.874992,95.505875 116.450546,93.427711 
	C117.222923,93.139839 117.762444,91.238213 117.779930,90.074188 
	C117.895065,82.411224 117.960686,74.742828 117.784431,67.082138 
	C117.696030,63.239918 116.825386,59.675838 111.721840,59.640018 
	C105.940186,59.599445 100.263428,63.317650 100.194687,67.572922 
	C100.073593,75.069069 100.105881,82.569359 100.215622,90.065842 
	C100.232933,91.248466 100.751831,93.263756 101.448639,93.463356 
	C106.948036,95.038651 106.031624,99.169495 105.587845,104.008278 
	C102.280708,104.008278 98.875725,104.008278 94.974472,104.008286 
z"/>
<path fill="#6550F5" opacity="1.000000" stroke="none" 
	d="
M292.789734,47.112823 
	C300.553223,47.896717 307.894531,48.617405 315.653625,49.379112 
	C315.653625,51.297966 315.653625,53.863098 315.653625,56.786819 
	C313.235870,57.310719 310.700073,57.860199 308.173523,58.407665 
	C312.568726,80.731903 300.154755,89.401535 278.990265,88.208481 
	C278.850250,89.936707 278.708893,91.681732 278.519867,94.014877 
	C284.788910,94.299667 290.852570,94.528709 296.910553,94.860725 
	C307.153076,95.422073 313.284851,100.175446 314.601562,108.481766 
	C315.978638,117.168991 310.930359,125.119125 301.469788,128.329483 
	C290.939575,131.902817 280.184906,131.739670 269.507385,128.923019 
	C263.862091,127.433846 259.548462,124.306038 258.610657,117.976295 
	C257.705780,111.869003 260.679291,107.819275 265.582031,104.773659 
	C266.244873,104.361900 266.838470,103.838684 267.485199,103.351196 
	C261.566956,96.993446 261.579987,96.628128 267.094604,86.410103 
	C264.575867,79.701523 261.464661,74.297729 260.628723,68.562309 
	C259.093018,58.026295 267.062775,48.829308 278.498535,47.126328 
	C283.024963,46.452271 287.738953,47.037674 292.789734,47.112823 
M275.155792,108.835381 
	C273.146149,112.459099 272.463409,116.982094 277.124756,117.753502 
	C283.468079,118.803261 290.183044,118.033165 296.674500,117.393013 
	C297.932434,117.268959 299.596222,114.230858 299.782013,112.405548 
	C299.941406,110.839615 298.549774,107.912674 297.336517,107.607880 
	C290.141449,105.800354 282.789124,104.326691 275.155792,108.835381 
M276.144226,67.481178 
	C276.204376,68.310585 276.163269,69.162361 276.340698,69.965858 
	C277.704956,76.142731 281.372864,78.628319 287.144897,77.336906 
	C292.426788,76.155167 294.637695,70.931160 293.024170,63.445103 
	C291.989807,58.646187 287.852081,56.188362 282.760803,57.343502 
	C277.772125,58.475372 276.372162,62.150967 276.144226,67.481178 
z"/>
<path fill="#6550F5" opacity="1.000000" stroke="none" 
	d="
M453.986267,101.009438 
	C444.965027,104.657043 435.944885,105.612038 426.698700,105.049789 
	C413.259216,104.232567 403.447449,96.639214 399.609833,83.755981 
	C396.545563,73.469002 396.546936,63.078838 399.659698,52.798328 
	C404.963837,35.280270 420.414001,26.264746 440.021027,29.326847 
	C444.758179,30.066662 449.430786,31.368223 454.027283,32.760571 
	C455.241943,33.128490 456.865692,34.751953 456.928070,35.875198 
	C457.230164,41.313534 457.064362,46.777851 457.064362,52.864098 
	C454.459778,52.864098 452.504517,52.697212 450.589325,52.903091 
	C447.692902,53.214455 446.202606,52.062714 445.906677,49.194481 
	C445.442047,44.691422 442.869690,42.968784 438.406036,42.317593 
	C425.307953,40.406746 417.440338,45.404537 416.014038,58.531090 
	C415.224060,65.801567 415.452393,73.562027 417.159332,80.633942 
	C419.607697,90.777672 433.335938,95.572540 442.497192,90.380119 
	C443.362793,89.889503 443.955292,88.327400 444.060455,87.205208 
	C444.292419,84.730003 444.410919,82.173294 444.019867,79.739120 
	C443.810059,78.432976 442.715118,76.734947 441.563324,76.204559 
	C435.890106,73.592094 435.836182,73.709183 436.887207,65.960083 
	C446.498779,65.960083 456.209503,65.960083 466.273499,65.960083 
	C466.547150,70.028160 468.652466,74.938904 461.553955,76.343185 
	C460.716461,76.508865 459.788422,78.608063 459.723358,79.853828 
	C459.497925,84.170166 459.334808,88.532204 459.717712,92.826035 
	C460.107727,97.199326 458.599823,99.829689 453.986267,101.009438 
z"/>
<path fill="#654FF5" opacity="1.000000" stroke="none" 
	d="
M555.821167,59.730679 
	C554.959290,58.936764 554.245422,58.295433 553.477478,58.222439 
	C547.292236,57.634506 546.371887,53.906574 547.895020,48.073082 
	C554.859436,48.073082 562.058655,48.073082 569.605652,48.073082 
	C569.881165,49.645969 570.212830,51.539513 570.615723,53.839767 
	C574.369751,51.934814 577.729675,49.898609 581.329102,48.462639 
	C594.497864,43.209000 604.503296,49.185070 605.557983,63.308453 
	C606.201111,71.921028 605.703308,80.614502 605.950378,89.264999 
	C605.994202,90.798141 606.759033,93.004448 607.911987,93.693558 
	C613.261597,96.891083 613.352539,96.738968 612.642883,103.704239 
	C603.428833,103.704239 594.176941,103.704239 584.565430,103.704239 
	C584.310364,99.873222 582.149170,95.597519 588.171509,93.707108 
	C589.061890,93.427628 589.884644,91.395500 589.911865,90.156067 
	C590.072937,82.833229 590.089294,75.503189 589.955261,68.179222 
	C589.858276,62.880352 587.097229,59.903866 582.676208,59.875042 
	C577.011353,59.838116 571.927856,63.853928 571.881531,68.548233 
	C571.812500,75.540939 571.773071,82.536957 571.937134,89.526489 
	C571.971252,90.980431 572.528015,92.938423 573.562317,93.763077 
	C578.012085,97.310989 578.109619,97.188698 577.078674,103.731522 
	C567.397705,103.731522 557.671875,103.731522 547.054749,103.731522 
	C547.533508,100.796036 547.161987,97.509636 548.622253,95.707489 
	C550.043091,93.953903 553.340210,93.720558 555.944092,92.772087 
	C555.944092,81.771744 555.944092,70.959183 555.821167,59.730679 
z"/>
<path fill="#6550F5" opacity="1.000000" stroke="none" 
	d="
M704.524902,102.710426 
	C691.664917,107.716209 681.360291,103.666672 679.192383,92.726868 
	C678.361694,88.535110 678.487366,84.132072 678.397217,79.820702 
	C678.275452,73.997658 678.527893,68.162399 678.248901,62.350174 
	C678.180603,60.926449 676.811646,58.492256 675.802063,58.361248 
	C669.393555,57.529610 669.349915,53.450821 670.373230,48.017723 
	C677.940857,48.017723 685.651001,48.017723 694.007690,48.017723 
	C694.007690,57.065784 693.989563,66.321938 694.017029,75.577957 
	C694.027405,79.071106 693.881165,82.593834 694.275146,86.049622 
	C694.811829,90.756683 697.643738,92.599411 702.342529,91.801491 
	C709.547302,90.578026 712.136108,87.505058 712.136292,80.173706 
	C712.136475,74.181686 712.293396,68.182381 712.017639,62.203053 
	C711.953186,60.804077 710.567627,58.424809 709.539856,58.280792 
	C702.981689,57.361851 703.517883,53.111393 704.387146,47.941185 
	C712.130920,47.941185 719.841736,47.941185 727.884033,47.941185 
	C727.884033,62.730206 727.884033,77.499367 727.884033,92.591255 
	C730.832031,93.544960 733.597046,94.439438 736.264893,95.302505 
	C737.134766,103.426414 737.135559,103.470299 729.137817,103.619797 
	C724.342163,103.709442 719.543518,103.636261 714.483459,103.636261 
	C714.064209,101.834778 713.629395,99.966743 713.085693,97.630547 
	C710.130554,99.398460 707.502258,100.970856 704.524902,102.710426 
z"/>
<path fill="#6650F5" opacity="1.000000" stroke="none" 
	d="
M244.091949,101.674995 
	C241.740662,102.628845 239.453705,103.458519 237.129532,103.580803 
	C232.667450,103.815575 228.184265,103.649139 223.387009,103.649139 
	C222.812012,101.976906 222.179977,100.138748 221.381378,97.816154 
	C219.647842,98.947586 218.150299,100.295708 216.394348,100.994858 
	C212.594101,102.507965 208.729736,104.509697 204.769196,104.838875 
	C195.798737,105.584435 190.122757,100.817596 188.424118,92.243706 
	C186.682068,83.450554 190.662033,76.092667 199.074936,73.360527 
	C202.510742,72.244705 206.207092,71.761894 209.825302,71.425888 
	C213.255753,71.107330 216.739014,71.357376 220.054276,71.357376 
	C221.672623,63.656303 220.180435,59.567230 215.656754,58.275234 
	C208.948853,56.359406 204.074066,58.913551 201.675827,65.784332 
	C198.816483,65.784332 195.877563,65.784332 191.868454,65.784332 
	C191.868454,61.219414 191.736145,56.779518 191.979141,52.360256 
	C192.028229,51.467480 193.353317,50.171978 194.334961,49.877033 
	C203.465500,47.133686 212.725357,45.323418 222.324265,46.986423 
	C230.802048,48.455193 235.446045,53.067883 235.975815,61.652790 
	C236.538361,70.768829 236.330475,79.930557 236.745239,89.059326 
	C236.816559,90.628860 238.200195,93.370338 239.176300,93.462349 
	C244.514969,93.965553 244.486465,97.387466 244.091949,101.674995 
M203.629593,85.159340 
	C204.486237,87.624840 204.625443,91.277328 206.344330,92.316284 
	C210.294876,94.704140 214.126389,92.344933 217.721436,89.965401 
	C221.558929,87.425385 221.214203,84.150322 220.463196,80.567123 
	C211.313477,79.434418 207.151840,80.436882 203.629593,85.159340 
z"/>
<path fill="#644FF5" opacity="1.000000" stroke="none" 
	d="
M352.349609,91.133453 
	C360.816223,94.110252 368.032074,90.787521 375.658600,87.821259 
	C377.142731,90.621498 378.594818,93.361267 380.133301,96.264061 
	C371.308746,102.968803 361.753052,106.133720 350.976562,104.812134 
	C339.367371,103.388435 331.597382,96.521027 330.060944,84.727623 
	C329.184387,77.999397 329.345215,70.586349 331.273193,64.151054 
	C336.030304,48.272854 355.703125,41.300674 370.143097,49.517815 
	C378.958832,54.534447 382.995209,66.694366 379.696381,79.064072 
	C368.703674,79.064072 357.587006,79.064072 345.861176,79.064072 
	C345.772278,84.531242 347.701538,88.312996 352.349609,91.133453 
M350.995605,60.165760 
	C347.875854,62.378597 345.773499,65.108826 346.155579,69.140701 
	C352.400116,69.140701 358.396393,69.140701 364.420166,69.140701 
	C363.459351,60.056828 359.840607,57.556519 350.995605,60.165760 
z"/>
<path fill="#644FF5" opacity="1.000000" stroke="none" 
	d="
M481.146851,78.793350 
	C481.214661,65.598373 484.438141,54.496296 497.215027,48.723377 
	C503.835632,45.732018 510.825104,45.563614 517.724121,47.582401 
	C525.381287,49.823021 530.413208,55.019993 531.881714,62.866974 
	C532.839478,67.984856 532.735046,73.301529 533.147034,79.100998 
	C520.800720,79.100998 509.539429,79.100998 498.315460,79.100998 
	C497.912811,87.356804 502.829712,92.533035 510.690247,92.301979 
	C513.649597,92.214981 516.639648,91.613281 519.520813,90.875832 
	C522.224670,90.183769 524.803406,89.002792 527.879944,87.874596 
	C529.332397,90.670410 530.755310,93.409393 532.291077,96.365662 
	C521.100220,104.405853 509.357697,107.718872 496.327332,102.973747 
	C485.404816,98.996208 482.139404,89.762901 481.146851,78.793350 
M507.495575,69.678925 
	C510.540771,69.678925 513.585938,69.678925 516.670532,69.678925 
	C515.919006,61.745213 513.531555,58.986961 508.088623,58.977554 
	C502.454926,58.967815 498.900482,62.630672 498.281494,69.678497 
	C501.056061,69.678497 503.799774,69.678497 507.495575,69.678925 
z"/>
<path fill="#654FF5" opacity="1.000000" stroke="none" 
	d="
M755.209106,75.851898 
	C749.504700,71.159302 748.458679,65.358643 750.169250,58.946304 
	C751.942993,52.297298 756.872498,48.768261 763.232849,47.268154 
	C771.726501,45.264858 780.104065,46.698738 788.316833,49.043446 
	C789.297852,49.323513 790.483154,51.092396 790.492249,52.180256 
	C790.526855,56.294601 790.115601,60.412708 789.853088,64.834396 
	C786.940674,64.834396 784.207214,64.834396 781.497864,64.834396 
	C778.900452,58.337517 776.241333,56.573917 770.132507,58.250465 
	C768.255371,58.765644 766.013916,60.821804 765.538818,62.599720 
	C765.205078,63.848640 767.224548,66.532555 768.816528,67.327339 
	C772.501038,69.166832 776.587463,70.185989 780.468811,71.649567 
	C790.017761,75.250290 793.432861,79.722626 792.998718,87.901718 
	C792.587219,95.653671 786.967346,101.934967 778.275574,103.962173 
	C768.840576,106.162743 759.522339,104.938080 750.070984,102.749886 
	C750.070984,97.222687 750.070984,91.945152 750.070984,86.256271 
	C752.981567,86.256271 755.858459,86.256271 758.600647,86.256271 
	C759.558044,88.476204 760.151306,92.214485 761.485413,92.500839 
	C765.440552,93.349777 769.711792,93.089859 773.805847,92.700500 
	C774.997864,92.587143 776.786377,90.658592 776.904053,89.428383 
	C777.044006,87.965805 776.087646,85.683777 774.881104,84.950775 
	C772.084351,83.251709 768.819946,82.340172 765.802917,80.981346 
	C762.334473,79.419197 758.928162,77.719086 755.209106,75.851898 
z"/>
<path fill="#654FF5" opacity="1.000000" stroke="none" 
	d="
M61.144012,37.544460 
	C60.149292,38.924702 59.301983,40.432060 58.152821,40.715469 
	C53.977364,41.745232 52.973988,44.191441 53.057060,48.303249 
	C53.322960,61.464108 53.061584,74.635208 53.270012,87.798134 
	C53.297401,89.527855 54.588413,92.469849 55.779823,92.744614 
	C62.450268,94.283028 61.439533,98.848991 60.816082,103.749870 
	C50.414631,103.749870 40.145699,103.749870 29.888113,103.749870 
	C28.128925,96.650993 28.375883,96.326981 34.743553,92.830681 
	C35.878345,92.207588 37.021393,90.395195 37.035450,89.119560 
	C37.195187,74.621819 37.194183,60.121010 37.034283,45.623253 
	C37.020222,44.348778 35.769440,42.175346 34.775532,41.972069 
	C28.220440,40.631393 28.633680,36.182568 29.540222,30.746487 
	C39.920094,30.746487 50.291939,30.746487 61.152924,30.746487 
	C61.152924,32.850418 61.152924,34.980190 61.144012,37.544460 
z"/>
<path fill="#6550F5" opacity="1.000000" stroke="none" 
	d="
M650.864014,87.766983 
	C651.515015,90.093536 651.885986,93.381981 652.862671,93.572975 
	C659.158447,94.804176 658.349060,99.035034 657.694885,103.699631 
	C647.455811,103.699631 637.221191,103.699631 627.006958,103.699631 
	C625.662109,96.965637 625.662109,96.965637 634.989258,92.509972 
	C634.989258,82.326103 635.073425,72.003815 634.875122,61.686958 
	C634.852173,60.491112 633.403809,58.457169 632.374695,58.288860 
	C626.410156,57.313385 625.274109,53.851971 626.939270,48.034027 
	C634.593994,48.034027 642.454346,48.034027 650.864014,48.034027 
	C650.864014,61.065765 650.864014,74.181129 650.864014,87.766983 
z"/>
<path fill="#6751F5" opacity="1.000000" stroke="none" 
	d="
M643.445251,39.542503 
	C636.042664,39.295128 632.658936,35.875332 633.087708,29.546736 
	C633.480164,23.754004 637.649353,20.347265 643.583191,20.866695 
	C647.938049,21.247908 650.082336,23.882885 650.787292,27.877710 
	C651.754211,33.356842 649.387451,37.173573 643.445251,39.542503 
z"/>
<path fill="#FBFBFF" opacity="1.000000" stroke="none" 
	d="
M275.424316,108.527420 
	C282.789124,104.326691 290.141449,105.800354 297.336517,107.607880 
	C298.549774,107.912674 299.941406,110.839615 299.782013,112.405548 
	C299.596222,114.230858 297.932434,117.268959 296.674500,117.393013 
	C290.183044,118.033165 283.468079,118.803261 277.124756,117.753502 
	C272.463409,116.982094 273.146149,112.459099 275.424316,108.527420 
z"/>
<path fill="#FBFAFF" opacity="1.000000" stroke="none" 
	d="
M276.144928,67.071365 
	C276.372162,62.150967 277.772125,58.475372 282.760803,57.343502 
	C287.852081,56.188362 291.989807,58.646187 293.024170,63.445103 
	C294.637695,70.931160 292.426788,76.155167 287.144897,77.336906 
	C281.372864,78.628319 277.704956,76.142731 276.340698,69.965858 
	C276.163269,69.162361 276.204376,68.310585 276.144928,67.071365 
z"/>
<path fill="#F8F7FE" opacity="1.000000" stroke="none" 
	d="
M203.758087,84.801338 
	C207.151840,80.436882 211.313477,79.434418 220.463196,80.567123 
	C221.214203,84.150322 221.558929,87.425385 217.721436,89.965401 
	C214.126389,92.344933 210.294876,94.704140 206.344330,92.316284 
	C204.625443,91.277328 204.486237,87.624840 203.758087,84.801338 
z"/>
<path fill="#F3F1FE" opacity="1.000000" stroke="none" 
	d="
M351.359924,60.017570 
	C359.840607,57.556519 363.459351,60.056828 364.420166,69.140701 
	C358.396393,69.140701 352.400116,69.140701 346.155579,69.140701 
	C345.773499,65.108826 347.875854,62.378597 351.359924,60.017570 
z"/>
<path fill="#F3F1FE" opacity="1.000000" stroke="none" 
	d="
M507.019531,69.678711 
	C503.799774,69.678497 501.056061,69.678497 498.281494,69.678497 
	C498.900482,62.630672 502.454926,58.967815 508.088623,58.977554 
	C513.531555,58.986961 515.919006,61.745213 516.670532,69.678925 
	C513.585938,69.678925 510.540771,69.678925 507.019531,69.678711 
z"/>
</svg>